<?xml version="1.0" encoding="UTF-8" standalone="no"?>
<!-- Created with Inkscape (http://www.inkscape.org/) -->

<svg
   width="43.755299mm"
   height="32.328781mm"
   viewBox="0 0 43.755298 32.328781"
   version="1.1"
   id="svg1"
   inkscape:version="1.3.2 (091e20e, 2023-11-25, custom)"
   sodipodi:docname="logoVentusDev.svg"
   xmlns:inkscape="http://www.inkscape.org/namespaces/inkscape"
   xmlns:sodipodi="http://sodipodi.sourceforge.net/DTD/sodipodi-0.dtd"
   xmlns="http://www.w3.org/2000/svg"
   xmlns:svg="http://www.w3.org/2000/svg">
  <sodipodi:namedview
     id="namedview1"
     pagecolor="#ffffff"
     bordercolor="#000000"
     borderopacity="0.25"
     inkscape:showpageshadow="2"
     inkscape:pageopacity="0.0"
     inkscape:pagecheckerboard="0"
     inkscape:deskcolor="#d1d1d1"
     inkscape:document-units="mm"
     inkscape:zoom="0.69219277"
     inkscape:cx="-58.509713"
     inkscape:cy="-93.904477"
     inkscape:window-width="1920"
     inkscape:window-height="991"
     inkscape:window-x="-9"
     inkscape:window-y="-9"
     inkscape:window-maximized="1"
     inkscape:current-layer="layer1" />
  <defs
     id="defs1">
    <rect
       x="125.68753"
       y="187.80896"
       width="626.99298"
       height="457.9649"
       id="rect1-9-0-2" />
  </defs>
  <g
     inkscape:label="Warstwa 1"
     inkscape:groupmode="layer"
     id="layer1"
     transform="translate(-38.67708,-103.91989)">
    <path
       id="path1-4"
       style="fill:#000000;stroke-width:0.112307"
       inkscape:transform-center-y="9.7742947"
       d="m 2.3954122,104.28441 c 0.8433209,0.005 -25.9113742,4.24795 -27.6078862,4.06533 1.033029,1.04666 9.195258,21.01327 8.779454,20.45143 -0.415845,-0.56189 17.7627859,15.06206 18.4011194,16.27568 0.6640464,-1.20592 19.1677916,-16.60436 18.7402346,-16.04765 -0.427496,0.55664 8.150689,-19.30558 9.206119,-20.34101 -1.700067,0.16176 -28.3623655,-4.40896 -27.5190408,-4.40378 z m 27.5190408,4.40378 c 0.06906,-0.006 0.111631,-0.0183 0.09474,-0.0412 -0.01689,-0.0229 -0.05181,-9.5e-4 -0.09474,0.0412 z M 1.9680994,145.07685 c -0.026893,0.0489 -0.034833,0.0828 -6.688e-4,0.0829 0.034176,2e-4 0.026526,-0.0338 6.688e-4,-0.0829 z M -25.212474,108.34974 c -0.04196,-0.0425 -0.07606,-0.0651 -0.09344,-0.0425 -0.01736,0.0226 0.02452,0.035 0.09344,0.0425 z m 27.2282716,1.59816 c 0.6414851,0 0.9624268,0.36265 0.9624268,1.08853 0,0.12662 -0.033746,0.24109 -0.1012758,0.34238 -0.059084,0.0928 -0.3376743,0.49783 -0.8356727,1.21529 -1.65435931,2.38869 -3.2412109,4.87882 -4.7605229,7.47009 -1.1985648,2.03417 -2.1905107,3.66273 -2.97549,4.88662 -0.8778234,1.35893 -1.3966298,2.34228 -1.5570036,2.95001 -0.1012858,0.33762 -0.3461283,0.61224 -0.7343975,0.82325 -0.3882659,0.21101 -0.8528045,0.31623 -1.393004,0.31623 -0.2278955,0 -0.7381039,-1.08458 -1.5315229,-3.25382 -0.354502,-0.94535 -1.540341,-3.97083 -3.557643,-9.0774 -1.071959,-2.70944 -1.607966,-4.08982 -1.607966,-4.14046 0.07596,-0.48112 0.240083,-0.8947 0.493301,-1.24077 0.253216,-0.34607 0.549011,-0.51879 0.886635,-0.51879 0.70057,0 1.181655,0.83513 1.443314,2.50637 0.244778,1.62903 1.852805,5.81983 4.8238967,12.57233 0.3207443,-0.54865 0.6668326,-1.1098 1.0382214,-1.68377 1.6796829,-2.62503 2.8820687,-4.63804 3.6079616,-6.03919 2.92889299,-5.47795 4.8618321,-8.2169 5.7987419,-8.2169 z m 11.0277414,0.55734 c 2.329613,0 4.199028,0.65778 5.608612,1.97452 1.418023,1.30829 2.127401,3.03476 2.127401,5.17868 0,2.35493 -1.013118,4.50294 -3.038865,6.44428 -2.017308,1.9329 -4.895219,3.34703 -8.6344144,4.24174 -1.477106,0.3545 -2.4776521,0.71316 -3.0009708,1.07611 -0.6921318,0.47267 -1.2658646,0.70892 -1.7216547,0.70892 -0.3207444,0 -0.6079389,-0.17337 -0.8611548,-0.51944 -0.24478,-0.33762 -0.367201,-0.60762 -0.367201,-0.81019 0,-0.0843 0.0847,-0.30345 0.2535092,-0.65795 0.1772566,-0.37983 0.2996776,-0.76429 0.3672023,-1.15256 0.075963,-0.38826 0.1388363,-1.08442 0.1894817,-2.08886 0.042205,-0.99599 0.1943989,-2.60401 0.4560582,-4.8239 0.270099,-2.22832 0.4897927,-3.80656 0.6586059,-4.73504 0.15193,-0.81029 0.2273735,-1.36747 0.2273735,-1.67134 0,-0.32918 -0.1899192,-0.54425 -0.569745,-0.64553 -0.6921292,-0.16882 -1.0382217,-0.45998 -1.0382217,-0.87358 0,-0.3123 0.1356488,-0.6167 0.4057491,-0.91211 0.2785399,-0.30387 0.5736821,-0.4554 0.8859831,-0.4554 l 1.77262,0.0503 c 0.8271801,0 1.915745,-0.0549 3.2662434,-0.16466 1.342061,-0.10975 2.346582,-0.164 3.013388,-0.164 z m -0.455403,1.89872 c -1.09728,0 -2.418768,0.10128 -3.9634024,0.30383 -0.3460646,0.0506 -0.6875282,0.089 -1.0251532,0.1143 -1.0044328,6.03503 -1.5066934,10.29333 -1.5066934,12.77487 0,0.54864 0.054924,0.96223 0.1646521,1.24077 0.06753,0.059 0.197891,0.0883 0.3920256,0.0883 0.5402005,0 1.9543372,-0.35404 4.2417423,-1.06304 2.28741,-0.70902 4.144254,-1.80221 5.570715,-3.27931 1.426463,-1.47711 2.139818,-3.15661 2.139818,-5.03887 0,-1.56151 -0.553209,-2.80691 -1.658932,-3.73537 -1.097279,-0.93691 -2.548482,-1.40542 -4.354772,-1.40542 z"
       inkscape:transform-center-x="1.071694e-06" />
    <text
       xml:space="preserve"
       transform="matrix(0.39453363,0,0,0.39453363,-109.47766,34.134118)"
       id="text1-8-4-1"
       style="font-size:48px;line-height:0.9;white-space:pre;shape-inside:url(#rect1-9-0-2);fill:#000000;fill-opacity:1"
       x="242.00391"
       y="0"><tspan
         x="357.97266"
         y="223.20045"
         id="tspan6"><tspan
           style="font-family:'Segoe Print';-inkscape-font-specification:'Segoe Print';text-align:center;text-anchor:middle"
           id="tspan5">Ventus
</tspan></tspan><tspan
         x="390.42188"
         y="269.01505"
         id="tspan8"><tspan
           style="font-family:'Segoe Print';-inkscape-font-specification:'Segoe Print';text-align:center;text-anchor:middle"
           id="tspan7">DeV</tspan></tspan></text>
  </g>
</svg>
