<?xml version="1.0" encoding="UTF-8" standalone="no"?>
<!-- Created with Inkscape (http://www.inkscape.org/) -->

<svg
   width="47.497444mm"
   height="47.497433mm"
   viewBox="0 0 47.497444 47.497433"
   version="1.1"
   id="svg1"
   xmlns:inkscape="http://www.inkscape.org/namespaces/inkscape"
   xmlns:sodipodi="http://sodipodi.sourceforge.net/DTD/sodipodi-0.dtd"
   xmlns="http://www.w3.org/2000/svg"
   xmlns:svg="http://www.w3.org/2000/svg">
  <sodipodi:namedview
     id="namedview1"
     pagecolor="#ffffff"
     bordercolor="#000000"
     borderopacity="0.25"
     inkscape:showpageshadow="2"
     inkscape:pageopacity="0.0"
     inkscape:pagecheckerboard="0"
     inkscape:deskcolor="#d1d1d1"
     inkscape:document-units="mm" />
  <defs
     id="defs1" />
  <g
     inkscape:label="Warstwa 1"
     inkscape:groupmode="layer"
     id="layer1"
     transform="translate(-66.077539,-92.452054)">
    <path
       sodipodi:type="star"
       style="fill:#008000;fill-opacity:1;stroke-width:0.264583"
       id="path1"
       inkscape:flatsided="false"
       sodipodi:sides="4"
       sodipodi:cx="35.166023"
       sodipodi:cy="54.660229"
       sodipodi:r1="63.508125"
       sodipodi:r2="17.147194"
       sodipodi:arg1="0"
       sodipodi:arg2="0.78539816"
       inkscape:rounded="0.32"
       inkscape:randomized="0"
       d="m 98.674149,54.660229 c 0,16.89421 -39.437218,0.178886 -51.383229,12.124897 -11.94601,11.94601 4.769313,51.383224 -12.124897,51.383224 -16.89421,0 -0.178886,-39.437214 -12.124897,-51.383224 -11.94601,-11.94601 -51.383228,4.769313 -51.383228,-12.124897 0,-16.89421 39.437218,-0.178887 51.383228,-12.124897 11.94601,-11.946011 -4.769313,-51.3832285 12.124897,-51.3832286 16.89421,0 0.178887,39.4372176 12.124897,51.3832286 11.946011,11.94601 51.383229,-4.769313 51.383229,12.124897 z"
       transform="matrix(0.37394776,0,0,0.37394776,76.676,95.7607)"
       inkscape:export-filename="add_icon_green.png"
       inkscape:export-xdpi="18.716797"
       inkscape:export-ydpi="18.716797" />
  </g>
</svg>
